<svg version="1.1" id="Layer_1" xmlns="http://www.w3.org/2000/svg" xmlns:xlink="http://www.w3.org/1999/xlink" x="0px" y="0px"
	 width="100%" viewBox="0 0 3554 1186" enable-background="new 0 0 3554 1186" xml:space="preserve">
<path fill="#FFFFFF" opacity="1.000000" stroke="none" 
	d="
M2226.000000,1188.000000 
	C1484.000000,1188.000000 743.000000,1188.000000 2.000000,1188.000000 
	C2.000000,792.666687 2.000000,397.333344 2.000000,2.000000 
	C1186.666626,2.000000 2371.333252,2.000000 3556.000000,2.000000 
	C3556.000000,397.333344 3556.000000,792.666687 3556.000000,1188.000000 
	C3113.000000,1188.000000 2670.000000,1188.000000 2226.000000,1188.000000 
M1654.142212,269.691284 
	C1643.434082,269.761963 1632.726074,269.832642 1620.939331,269.151672 
	C1617.109375,268.225159 1614.353149,269.219025 1613.508911,273.426086 
	C1612.988281,276.020905 1612.563965,278.635803 1612.131348,281.247467 
	C1610.581787,290.601746 1609.047241,299.958466 1607.402100,309.951660 
	C1596.460327,309.951660 1586.588867,309.951660 1575.924805,309.951660 
	C1574.140747,320.679901 1572.473267,330.706787 1570.563354,342.192139 
	C1580.149414,342.192139 1588.909424,342.192139 1598.899780,342.192139 
	C1597.488403,351.819275 1596.335327,359.956635 1595.096069,368.080811 
	C1592.649658,384.119568 1589.320190,399.984497 1589.609009,416.417908 
	C1589.954712,436.075500 1601.959839,453.980957 1625.528931,458.434723 
	C1637.116089,458.948883 1648.719849,460.061768 1660.284058,459.743286 
	C1666.786255,459.564240 1673.358765,457.426147 1679.619263,455.332367 
	C1681.923828,454.561646 1684.997314,451.397339 1685.018188,449.298035 
	C1685.112183,439.860352 1684.234619,430.413055 1683.687256,420.605560 
	C1678.980713,421.603271 1675.426025,422.917664 1671.844238,422.996338 
	C1664.945557,423.147888 1657.825684,423.552338 1651.173340,422.114410 
	C1641.763062,420.080414 1637.804443,414.530609 1637.886353,404.854248 
	C1637.945190,397.918152 1638.907227,390.948242 1639.968384,384.070892 
	C1642.082764,370.367462 1644.542480,356.717377 1646.980591,342.331390 
	C1664.860962,341.613647 1682.035645,342.648895 1699.087158,341.766663 
	C1700.793945,330.649628 1702.291138,320.898254 1704.015137,309.670166 
	C1686.281738,309.670166 1669.521118,309.670166 1652.224731,309.670166 
	C1654.130737,296.145081 1655.837769,284.032501 1657.599854,270.923645 
	C1657.308472,270.197144 1656.773804,269.878479 1654.142212,269.691284 
M1322.003784,432.000916 
	C1322.003784,432.000916 1322.076538,432.058563 1322.336304,433.824005 
	C1321.676758,441.550842 1321.017212,449.277679 1320.354126,457.046448 
	C1335.426147,457.046448 1349.214722,457.046448 1363.163696,457.046448 
	C1370.910400,407.926575 1378.537720,359.563080 1386.277710,310.485138 
	C1369.434326,310.485138 1353.995483,310.485138 1338.484131,310.485138 
	C1337.642456,313.301819 1336.709351,315.476410 1336.359619,317.741058 
	C1332.815308,340.700653 1329.402710,363.680542 1325.878540,386.643280 
	C1323.203369,404.072876 1310.924316,416.985901 1293.812988,420.531036 
	C1276.633423,424.090332 1265.690552,413.939667 1268.329834,396.520447 
	C1271.213135,377.492157 1274.527466,358.529541 1277.555298,339.522583 
	C1279.054810,330.109650 1280.333130,320.661499 1281.822754,310.468414 
	C1265.468140,310.468414 1249.986816,310.468414 1234.244507,310.468414 
	C1233.533936,312.535736 1232.622803,314.334534 1232.308716,316.232208 
	C1228.948975,336.531525 1225.426147,356.809296 1222.484741,377.170502 
	C1220.589355,390.290131 1218.142700,403.577789 1218.501343,416.720337 
	C1219.123779,439.515869 1229.832031,453.677277 1250.961304,458.968903 
	C1256.660522,460.396240 1262.843140,460.142700 1268.808960,460.210754 
	C1289.597168,460.447906 1306.119507,452.057953 1318.396606,435.255096 
	C1319.333984,433.972168 1320.745117,433.035309 1322.003784,432.000916 
M1871.878052,810.247437 
	C1911.803589,810.139282 1951.729004,810.032104 1991.654419,809.902832 
	C1991.933105,809.901917 1992.228760,809.621887 1992.483643,809.428772 
	C1992.747192,809.229004 1992.970581,808.976135 1993.425659,808.542358 
	C1996.066040,791.622192 1997.050781,774.511475 1994.194946,757.226990 
	C1988.015747,719.829346 1967.823975,693.921509 1931.861816,681.224182 
	C1909.105835,673.189636 1885.682617,672.424500 1860.551636,676.798584 
	C1858.271606,677.242004 1855.982544,677.644165 1853.712769,678.135010 
	C1824.741089,684.400330 1800.217163,698.352295 1782.293823,722.102173 
	C1757.636108,754.775940 1751.264404,791.984436 1758.603271,831.642273 
	C1762.073730,850.395447 1771.266357,866.632629 1785.593750,879.389648 
	C1806.738892,898.217102 1832.066772,906.953430 1861.804199,909.429810 
	C1903.221069,912.186462 1943.385742,908.694824 1980.809448,886.171143 
	C1975.256592,870.980530 1969.956055,856.480286 1964.516113,841.598389 
	C1962.323364,842.331665 1961.066406,842.614990 1959.929443,843.152405 
	C1933.220215,855.777588 1905.369751,861.973389 1875.738281,858.132446 
	C1871.138184,857.536194 1866.557007,856.795227 1860.951904,855.163818 
	C1850.983154,851.975586 1842.006470,847.157166 1835.355103,838.844543 
	C1829.253906,831.219360 1825.276489,822.798767 1826.175537,811.382324 
	C1836.989990,811.382324 1847.183228,811.509033 1857.370728,811.321533 
	C1861.591431,811.243835 1865.799927,810.494080 1871.878052,810.247437 
M963.786072,647.000000 
	C963.793396,528.027405 963.862854,409.054718 963.718384,290.082275 
	C963.702698,277.177277 962.490479,264.271484 961.761719,251.370102 
	C960.407471,227.396301 949.457581,207.774857 933.179688,191.014587 
	C928.239807,185.928314 921.297607,182.820496 915.415710,178.606583 
	C908.072571,173.345840 887.446106,166.192108 878.582642,166.191360 
	C707.618469,166.177124 536.654297,166.177170 365.690125,166.198318 
	C363.039795,166.198654 360.242401,166.006760 357.763397,166.744156 
	C343.224976,171.068665 329.117432,175.923492 316.815613,185.658508 
	C294.171570,203.577881 280.895935,226.246490 280.039124,255.154251 
	C279.279236,280.793060 279.851837,306.472168 279.908356,332.133331 
	C279.914703,335.004486 280.391479,337.874603 280.748230,341.834442 
	C287.404388,341.834442 293.336548,341.616791 299.245544,341.893921 
	C305.513672,342.187866 311.752502,343.303345 318.017151,343.434143 
	C329.572723,343.675323 329.950256,343.181580 329.970215,331.882080 
	C330.011414,308.553741 329.970459,285.225220 329.992218,261.896790 
	C329.994690,259.239105 329.607300,256.401642 330.373993,253.952209 
	C336.969391,232.880325 354.032349,217.442245 377.388947,217.519394 
	C540.019714,218.056641 702.653198,217.803192 865.285767,217.803543 
	C867.618591,217.803543 869.998779,217.505081 872.276245,217.861237 
	C883.726074,219.651825 894.612976,223.926483 901.508789,233.097610 
	C908.173523,241.961380 912.419434,252.437500 912.411804,264.360931 
	C912.275818,476.649658 912.387085,688.938599 912.161987,901.227173 
	C912.145874,916.430298 907.677917,929.843567 893.095215,938.910034 
	C883.657837,944.777527 874.494324,948.219421 863.493530,948.213135 
	C700.861023,948.120300 538.228455,948.115112 375.595917,948.219360 
	C362.414642,948.227844 351.434662,942.902039 342.938660,933.895447 
	C335.022949,925.504211 329.707336,915.102295 329.917755,902.703552 
	C330.172211,887.710999 329.979523,872.710876 329.980377,857.713989 
	C329.980896,849.049133 330.104279,840.382080 329.946136,831.720154 
	C329.797974,823.603149 328.681824,822.464050 320.618713,822.355225 
	C309.623016,822.206848 298.623444,822.268921 287.626434,822.353394 
	C285.390533,822.370544 283.158478,822.887390 279.873657,823.308655 
	C279.873657,826.942627 279.873474,830.193481 279.873718,833.444275 
	C279.875366,855.772949 280.082825,878.104065 279.812256,900.429443 
	C279.604309,917.589355 281.679932,934.285217 290.572144,949.179260 
	C295.611755,957.620361 301.775360,965.586853 308.518280,972.744446 
	C312.908630,977.404785 319.546387,979.856262 324.663422,983.940979 
	C339.369995,995.680664 357.205505,999.050232 374.709045,999.412231 
	C427.003906,1000.493835 479.335541,999.824707 531.652771,999.788269 
	C583.635376,999.752075 635.617920,999.596130 687.600525,999.598694 
	C744.248352,999.601501 800.898682,999.461670 857.542114,999.995972 
	C870.633606,1000.119446 883.308655,998.029236 895.569031,994.771179 
	C915.719604,989.416443 931.336975,976.474976 943.721191,959.935425 
	C948.405823,953.679016 952.822815,946.893066 955.705505,939.686035 
	C961.404114,925.438660 963.502747,910.091187 963.582214,894.947205 
	C964.012512,812.966675 963.787903,730.982788 963.786072,647.000000 
M517.991272,531.562317 
	C519.018616,540.410706 519.285950,549.430115 521.230103,558.072266 
	C525.387695,576.553223 535.912354,591.801147 548.738770,605.193176 
	C556.909058,613.723694 563.774109,622.953064 568.272278,633.637573 
	C570.758179,639.542236 571.334290,646.374451 571.949036,652.866455 
	C572.128845,654.765259 569.928955,657.961609 568.046143,658.777222 
	C562.925903,660.995483 557.458618,663.350464 552.008484,663.684204 
	C538.409607,664.516785 525.421875,667.701416 512.493652,671.574341 
	C508.066345,672.900574 503.265381,673.242798 499.075958,675.054138 
	C480.100861,683.258057 462.915802,693.854553 449.066620,709.827698 
	C441.251221,718.841675 435.729065,728.674133 432.070221,739.697571 
	C428.169403,751.449829 427.450623,763.666443 427.806000,776.012573 
	C428.336517,794.444641 440.064758,806.074829 458.577606,806.075684 
	C582.510986,806.081604 706.444885,805.936218 830.377014,806.334778 
	C841.008362,806.369019 849.119019,804.034424 855.352600,795.564636 
	C857.505737,792.639038 859.827026,789.816284 861.727661,786.734436 
	C862.720032,785.125488 863.355286,783.083740 863.490234,781.190308 
	C865.423340,754.076599 859.368408,729.442505 841.376160,708.257385 
	C820.769104,683.993652 792.867249,673.444275 763.223450,666.385620 
	C748.555176,662.892883 733.574890,660.710754 719.308594,658.042786 
	C714.758545,644.431946 720.386292,633.686584 725.917236,623.919739 
	C731.222656,614.551147 739.312744,606.748718 746.268188,598.331726 
	C748.382141,595.773560 751.307129,593.769714 752.981262,590.983582 
	C762.150085,575.724854 770.879089,560.361023 773.054016,542.059021 
	C774.035095,533.803040 773.665283,526.350281 769.865967,518.921204 
	C768.257935,515.776917 766.545959,512.005005 766.831299,508.685944 
	C768.427368,490.120209 768.547852,471.743439 765.959106,453.154999 
	C763.547729,435.839935 757.975708,420.562775 745.273743,408.356903 
	C741.697510,404.920319 739.725220,401.385956 739.854553,396.185425 
	C740.100952,386.279541 735.457214,377.371429 728.073792,372.113434 
	C720.319580,366.591400 711.613708,360.683502 700.689697,362.068146 
	C696.427673,362.608398 692.028015,362.349701 687.709778,362.113007 
	C665.073853,360.872009 642.832214,363.739227 620.734009,368.276978 
	C616.536316,369.138947 611.992004,369.115967 608.148621,370.763489 
	C589.727905,378.659729 570.374146,384.423462 554.371216,397.632477 
	C545.923035,404.605743 539.342651,412.485596 534.394531,421.896393 
	C528.391541,433.313568 525.128540,445.393951 523.726013,458.453125 
	C522.046936,474.087250 521.182983,489.440002 523.835754,504.973785 
	C524.314331,507.776398 523.823914,510.913849 523.093262,513.717529 
	C521.678101,519.147827 519.773743,524.450684 517.991272,531.562317 
M1351.836182,728.930298 
	C1350.602295,716.058350 1350.316162,703.010254 1347.961670,690.346619 
	C1340.025879,647.664185 1314.957153,618.695312 1275.137939,602.094788 
	C1250.445435,591.800537 1224.285278,589.061829 1198.017700,588.570068 
	C1158.061890,587.822144 1118.081787,588.355835 1078.112061,588.383179 
	C1075.181641,588.385193 1072.251587,588.693115 1068.260254,588.918823 
	C1055.587402,694.468689 1042.959106,799.649109 1030.211304,905.823669 
	C1035.006104,905.823669 1038.281006,905.823792 1041.555908,905.823669 
	C1083.524170,905.822266 1125.492432,905.809570 1167.460693,905.824341 
	C1188.839722,905.831848 1209.931152,903.361572 1230.575562,897.840942 
	C1278.609619,884.995789 1314.678711,857.493103 1335.287109,811.383728 
	C1346.733276,785.773865 1350.854370,758.634705 1351.836182,728.930298 
M2662.028564,676.618652 
	C2640.771484,673.276672 2619.592529,673.581177 2598.524414,678.094238 
	C2570.350098,684.129517 2545.852295,696.751709 2527.378906,719.326172 
	C2503.462402,748.551697 2495.885986,782.682861 2499.848633,819.467468 
	C2504.554199,863.144836 2528.930664,891.253296 2570.568115,904.369141 
	C2595.556396,912.240417 2621.206299,912.276184 2646.640869,907.560425 
	C2682.325928,900.944397 2711.340088,883.176514 2730.470215,851.704712 
	C2749.291260,820.741516 2754.079834,787.044861 2746.586914,751.744080 
	C2741.855469,729.450500 2730.293945,711.155457 2712.031738,697.295227 
	C2697.668457,686.394104 2681.347656,680.138123 2662.028564,676.618652 
M3204.219238,679.807678 
	C3199.927979,679.681580 3198.844238,683.043518 3197.432861,686.048950 
	C3180.020508,723.125061 3162.630859,760.211853 3145.181641,797.270630 
	C3140.106689,808.048950 3134.861816,818.747253 3129.694824,829.482239 
	C3129.069336,829.425842 3128.443848,829.369446 3127.818359,829.313049 
	C3115.911133,779.671387 3104.003662,730.029724 3092.195801,680.802673 
	C3078.737549,678.926331 3023.814209,679.432007 3016.417480,681.457764 
	C3017.767334,686.221924 3019.012451,691.020813 3020.484375,695.749207 
	C3041.056885,761.844727 3061.590820,827.952576 3082.381348,893.979675 
	C3084.142578,899.572754 3083.865479,904.002747 3080.854004,909.001892 
	C3068.308105,929.826965 3056.055908,950.828979 3043.711670,971.775391 
	C3041.224609,975.995117 3038.806152,980.255127 3035.682617,985.663147 
	C3040.280029,985.889221 3043.454590,986.171814 3046.629639,986.180237 
	C3063.625244,986.225281 3080.621094,986.202820 3097.616699,986.202148 
	C3114.212891,986.201416 3114.130615,986.156311 3121.823975,971.844727 
	C3143.271729,931.947083 3164.797119,892.091125 3186.287354,852.216248 
	C3215.836670,797.388367 3245.390869,742.562927 3274.895996,687.710999 
	C3276.071533,685.525330 3276.764404,683.079895 3278.068359,679.778381 
	C3253.252930,679.778381 3229.622070,679.778381 3204.219238,679.807678 
M2323.916260,882.985413 
	C2334.494873,895.338867 2348.119629,902.317993 2363.684570,906.384277 
	C2382.386963,911.270142 2401.343506,910.977966 2420.239746,909.357361 
	C2433.089844,908.255249 2445.785156,905.304932 2458.177490,898.277588 
	C2457.172852,882.352905 2456.160889,866.309448 2455.092529,849.374084 
	C2447.385742,850.786865 2440.945068,852.153809 2434.444580,853.116455 
	C2424.178223,854.636841 2413.909180,854.960938 2403.751709,852.135742 
	C2390.151123,848.352905 2381.642334,838.867371 2382.064453,824.665344 
	C2382.566895,807.761597 2384.633545,790.884216 2386.489990,774.046997 
	C2388.084717,759.584045 2390.336914,745.193726 2392.422363,729.860718 
	C2419.201172,729.860718 2445.382080,729.860718 2472.535889,729.860718 
	C2474.443115,713.003113 2476.249268,697.042175 2478.223145,679.596436 
	C2450.830811,679.596436 2424.757812,679.596436 2398.066406,679.596436 
	C2400.509033,658.520630 2402.789062,638.845886 2405.119141,618.738464 
	C2382.163574,618.738464 2360.063721,618.738464 2337.303223,618.738464 
	C2334.783691,639.264771 2332.335693,659.210632 2329.775146,680.071411 
	C2312.848145,680.071411 2297.020996,680.071411 2280.674805,680.071411 
	C2278.675049,697.040283 2276.795410,712.988892 2274.774414,730.137878 
	C2289.960205,730.137878 2303.794678,730.137878 2318.711914,730.137878 
	C2316.700684,747.089905 2314.707031,762.859558 2312.986328,778.658997 
	C2310.828369,798.472229 2306.792236,818.146729 2308.079834,838.233948 
	C2309.097900,854.110535 2312.738770,869.143127 2323.916260,882.985413 
M2252.722168,711.878845 
	C2254.377441,707.643616 2256.032471,703.408325 2258.180908,697.910767 
	C2248.550049,693.091125 2239.995605,687.842163 2230.771729,684.370667 
	C2199.660645,672.661865 2167.631104,671.144104 2135.489258,679.034607 
	C2096.500244,688.606140 2066.350830,709.953186 2050.281738,747.947327 
	C2040.532837,770.997803 2036.906860,795.051147 2039.667969,820.197510 
	C2045.021362,868.951904 2079.996094,900.447754 2123.798828,907.642273 
	C2138.131592,909.996460 2152.997559,910.211731 2167.567871,909.755432 
	C2190.115479,909.049255 2211.568115,902.961304 2231.709229,892.680420 
	C2235.449463,890.771240 2238.824463,888.146301 2242.701172,885.636047 
	C2237.061279,868.500366 2231.699951,852.210083 2226.492188,836.386597 
	C2225.078613,836.195251 2224.705566,836.019958 2224.463623,836.130981 
	C2221.448242,837.513733 2218.440430,838.913635 2215.452881,840.355713 
	C2197.418213,849.060669 2178.523193,853.419678 2158.394287,852.103088 
	C2134.491211,850.539612 2117.669678,837.498169 2113.012695,815.634033 
	C2111.580078,808.907715 2111.516357,801.666626 2112.104248,794.770142 
	C2115.473145,755.242554 2140.209961,732.709839 2180.111084,732.619995 
	C2198.555664,732.578491 2216.441406,737.083008 2232.207031,747.668396 
	C2233.482666,748.524780 2235.082031,748.899536 2237.039551,749.708252 
	C2242.211670,737.218262 2247.168701,725.247803 2252.722168,711.878845 
M1950.869873,449.867584 
	C1954.562500,426.885529 1958.296143,403.909973 1961.933838,380.919220 
	C1964.478760,364.836212 1972.537842,352.961121 1988.213867,347.422485 
	C2006.538330,340.948151 2017.668945,349.600433 2016.478760,368.955994 
	C2016.335693,371.283478 2016.231323,373.627533 2015.864014,375.924713 
	C2013.553467,390.372406 2011.130005,404.802063 2008.829834,419.251404 
	C2006.851562,431.678711 2004.988037,444.124298 2002.973999,457.209229 
	C2018.892212,457.209229 2034.033081,457.209229 2049.342041,457.209229 
	C2050.177979,453.798065 2051.105957,450.934906 2051.563477,447.998474 
	C2055.096680,425.325623 2058.516846,402.635223 2062.014648,379.956818 
	C2065.429199,357.819336 2080.842285,344.520172 2101.512695,345.811951 
	C2111.250000,346.420441 2116.170898,351.031097 2116.503418,360.848969 
	C2116.693848,366.467133 2116.175049,372.180389 2115.321045,377.750519 
	C2111.743896,401.086700 2107.889648,424.380310 2104.221436,447.702759 
	C2103.731689,450.817352 2103.724609,454.007812 2103.494385,457.157104 
	C2119.547852,457.157104 2134.721191,457.157104 2149.960693,457.157104 
	C2150.614990,455.400696 2151.292236,454.213196 2151.493652,452.949829 
	C2155.574707,427.333008 2159.773438,401.732788 2163.544678,376.069885 
	C2164.846680,367.210754 2166.118896,358.125519 2165.568848,349.257477 
	C2163.905273,322.446747 2153.093018,310.059937 2129.233154,306.768280 
	C2106.501709,303.632294 2086.321533,310.041779 2070.845947,328.055267 
	C2068.774902,330.465973 2066.778076,332.940338 2064.298096,335.925354 
	C2063.299316,334.020264 2062.555664,332.945831 2062.140381,331.756592 
	C2057.279541,317.831390 2047.117432,309.522858 2033.041748,307.325897 
	C2008.338013,303.470062 1986.905396,310.087646 1970.717773,330.188660 
	C1968.905640,332.438751 1967.211670,334.783905 1964.056885,338.935394 
	C1965.535645,328.028442 1966.700562,319.436584 1967.927734,310.385590 
	C1953.217651,310.385590 1939.745605,310.385590 1925.610718,310.385590 
	C1917.759521,359.400238 1909.991821,407.892303 1902.152954,456.829834 
	C1904.824097,457.224976 1906.736206,457.743317 1908.650635,457.752625 
	C1920.979858,457.812531 1933.309692,457.748962 1945.639282,457.752899 
	C1949.965576,457.754303 1949.984375,454.487091 1950.869873,449.867584 
M2876.062012,827.296631 
	C2877.328125,817.739868 2878.459473,808.162842 2879.886230,798.630066 
	C2883.991699,771.192444 2901.863037,751.408997 2928.280273,747.265747 
	C2938.442139,745.671997 2948.740234,744.939209 2958.981689,743.863953 
	C2968.447021,742.870239 2977.919678,741.943420 2988.208496,740.904358 
	C2988.208496,718.402649 2988.208496,696.934753 2988.208496,674.910645 
	C2978.800293,675.335022 2969.889160,675.492676 2961.023682,676.215271 
	C2954.089111,676.780518 2947.068604,677.459961 2940.334229,679.104431 
	C2914.376221,685.442871 2896.864014,702.470947 2883.792969,724.868469 
	C2882.207275,727.585266 2880.588623,730.282898 2877.905029,734.813232 
	C2877.079834,715.088867 2883.279053,698.071350 2881.818359,680.483093 
	C2860.416748,680.483093 2839.966309,680.483093 2818.968262,680.483093 
	C2809.951172,755.559387 2801.010254,830.000488 2791.981201,905.175354 
	C2817.202148,905.175354 2841.354004,905.175354 2866.599609,905.175354 
	C2869.723877,879.724060 2872.831543,854.405334 2876.062012,827.296631 
M1629.784668,684.908936 
	C1630.108276,679.026855 1625.820679,679.859131 1622.266724,679.850586 
	C1605.609863,679.810547 1588.952759,679.805481 1572.296265,679.886963 
	C1570.395386,679.896362 1568.497681,680.526245 1566.753418,680.840515 
	C1564.039795,697.529053 1538.369873,897.285767 1541.018677,905.111816 
	C1564.898804,905.111816 1588.976196,905.111816 1613.497192,905.111816 
	C1614.537109,896.229065 1615.449463,887.999329 1616.471680,879.783325 
	C1619.627930,854.415344 1622.664551,829.030945 1626.049927,803.693359 
	C1629.962646,774.409790 1643.043213,753.234009 1677.036133,746.755188 
	C1686.457397,744.959595 1696.195679,744.835754 1705.784912,743.909058 
	C1714.974365,743.020813 1724.159424,742.085999 1733.590454,741.147400 
	C1736.729614,718.754456 1735.845947,696.978394 1735.587402,674.550659 
	C1722.677979,675.344360 1710.792114,675.908813 1698.940430,676.887329 
	C1694.339844,677.267212 1689.733276,678.283142 1685.271606,679.521545 
	C1659.940918,686.552551 1642.904663,703.560425 1630.259644,725.731995 
	C1628.572510,728.690063 1627.079956,731.758972 1625.497192,734.776489 
	C1624.886353,734.523193 1624.275513,734.269836 1623.664551,734.016479 
	C1625.664795,718.237366 1627.665161,702.458313 1629.784668,684.908936 
M1175.494751,253.114227 
	C1156.185791,247.301147 1136.713867,245.114746 1116.475708,247.820648 
	C1083.800537,252.189423 1056.782227,266.060913 1037.560303,293.113525 
	C1016.231262,323.131714 1010.214050,357.067963 1016.213562,392.813660 
	C1021.302612,423.135406 1039.299561,443.933899 1068.404297,454.273041 
	C1092.613403,462.873047 1117.405518,462.075195 1142.173584,456.807861 
	C1153.957520,454.301819 1165.135498,450.052155 1175.143188,443.147888 
	C1177.905396,441.242188 1181.038086,439.165680 1179.882690,435.195374 
	C1176.679321,424.188080 1174.105469,412.930084 1168.527344,401.947754 
	C1148.940796,414.917572 1128.038086,419.853210 1105.380371,418.238464 
	C1084.742554,416.767639 1070.311157,405.277100 1065.774292,385.067596 
	C1060.658325,362.278717 1065.199585,340.673096 1076.369751,320.657318 
	C1080.310669,313.595551 1086.123413,307.083374 1092.390991,301.904999 
	C1113.984741,284.063477 1150.970703,285.155640 1173.189819,299.254456 
	C1176.427979,301.309143 1179.829224,303.107117 1184.181641,305.615631 
	C1190.589355,292.812317 1196.451050,281.100098 1202.181030,269.651001 
	C1194.873535,260.987213 1185.574341,257.884583 1175.494751,253.114227 
M1415.924072,740.695312 
	C1409.274170,795.292969 1402.624268,849.890625 1395.893677,905.150940 
	C1421.294312,905.150940 1445.397705,905.150940 1470.620850,905.150940 
	C1479.637695,830.033752 1488.590698,755.448364 1497.541016,680.885681 
	C1482.365356,678.783081 1429.836548,679.430664 1422.763916,681.729187 
	C1420.528687,700.684265 1418.275513,719.790833 1415.924072,740.695312 
M1858.992432,323.969025 
	C1854.039062,320.642242 1849.344849,316.816498 1844.082764,314.084015 
	C1829.420898,306.470276 1813.446777,305.131836 1797.365356,306.366760 
	C1777.027832,307.928436 1758.257202,314.016693 1742.710327,328.066223 
	C1720.432495,348.198212 1712.722046,374.071381 1714.559814,402.917206 
	C1716.230225,429.135284 1733.389893,449.456940 1758.242920,456.851227 
	C1774.475586,461.680817 1791.096436,462.257141 1807.592407,458.830048 
	C1846.821167,450.680237 1871.422974,424.853027 1877.179810,385.002960 
	C1880.392456,362.764801 1877.124878,341.718811 1858.992432,323.969025 
M2216.173584,339.277893 
	C2205.456543,353.152161 2200.268311,369.250885 2198.601074,386.348114 
	C2195.341553,419.779541 2209.815918,446.842743 2244.357666,456.164734 
	C2274.503174,464.300293 2304.266113,462.324982 2333.112549,449.940033 
	C2336.092285,448.660706 2338.817383,446.788330 2342.300537,444.831665 
	C2339.103027,434.980194 2336.074463,425.649139 2332.866943,415.766510 
	C2330.513672,416.597229 2328.949707,416.990204 2327.526855,417.675873 
	C2310.531494,425.865601 2292.506104,428.131439 2274.025879,426.002258 
	C2267.935547,425.300568 2261.662598,423.061249 2256.276855,420.075348 
	C2247.513428,415.216858 2243.396240,407.177917 2243.920410,395.695374 
	C2280.270020,395.695374 2316.045166,395.695374 2352.500244,395.695374 
	C2353.481201,388.104797 2354.791260,381.609100 2355.087158,375.067535 
	C2356.531250,343.145721 2342.395020,314.536072 2306.033447,307.991302 
	C2271.185547,301.718994 2240.721191,310.412659 2216.173584,339.277893 
M1411.477295,449.620758 
	C1417.398438,451.778809 1423.207031,454.343048 1429.261841,456.017944 
	C1446.747559,460.854889 1464.633057,461.092041 1482.623169,460.178558 
	C1496.511963,459.473389 1509.605835,456.153870 1521.571411,449.073120 
	C1532.823120,442.414917 1541.748657,433.442444 1544.622437,420.256989 
	C1549.962646,395.756104 1542.558838,382.694153 1520.660522,374.776306 
	C1519.418335,374.327179 1518.092285,374.078125 1516.786011,373.843201 
	C1506.007446,371.904694 1495.228149,369.969269 1484.440796,368.080750 
	C1479.532471,367.221466 1474.535400,366.757477 1469.707642,365.583496 
	C1465.449829,364.548096 1461.384644,362.633667 1460.110596,357.813171 
	C1458.748779,352.660797 1460.757568,348.353668 1464.987305,345.699768 
	C1468.836304,343.284851 1473.266968,340.438812 1477.526001,340.295074 
	C1489.434814,339.893097 1501.509644,339.886780 1513.283447,341.472229 
	C1522.228516,342.676758 1530.813232,346.558929 1540.412842,349.512665 
	C1544.531372,340.354034 1548.691162,331.103729 1553.285889,320.886108 
	C1547.515625,317.960632 1543.027222,315.137970 1538.163818,313.316223 
	C1519.417847,306.294281 1499.837524,304.675995 1480.147583,306.607941 
	C1464.495972,308.143616 1449.451904,312.417725 1436.390991,321.984222 
	C1423.998779,331.060974 1416.788574,343.338531 1417.039551,358.454926 
	C1417.320435,375.358917 1423.302246,387.222015 1445.189575,393.475250 
	C1454.057617,396.008911 1463.522095,396.430939 1472.698120,397.919037 
	C1480.226440,399.139954 1487.936646,399.822998 1495.193970,401.990662 
	C1505.477173,405.062164 1506.817505,413.527130 1498.782837,420.851776 
	C1492.727539,426.371979 1485.088501,427.612793 1477.444458,427.960266 
	C1458.247314,428.832947 1439.602539,426.281464 1422.177124,417.496948 
	C1420.737427,416.771240 1419.110352,416.417206 1416.454834,415.508881 
	C1412.970581,423.178101 1409.509644,430.626068 1406.197754,438.139709 
	C1403.503906,444.250885 1403.583130,444.285828 1411.477295,449.620758 
M2510.429688,339.507599 
	C2512.172363,328.702209 2511.925293,317.878815 2512.093262,307.059052 
	C2481.659668,306.787262 2465.928467,306.752350 2439.229492,342.393799 
	C2440.758545,330.645416 2442.047119,320.747009 2443.411133,310.266602 
	C2429.417236,310.266602 2416.241211,310.266602 2402.070801,310.266602 
	C2394.199219,359.323761 2386.384766,408.023376 2378.484131,457.260498 
	C2395.284424,457.260498 2410.793701,457.260498 2426.253662,457.260498 
	C2426.849854,455.905701 2427.447754,455.053040 2427.599121,454.127380 
	C2431.086182,432.790588 2434.546387,411.449371 2437.965088,390.101501 
	C2441.346191,368.987885 2453.221680,356.794312 2474.411133,353.581573 
	C2485.849121,351.847382 2497.413818,350.950012 2509.381348,349.624146 
	C2509.720703,346.433167 2509.994629,343.856201 2510.429688,339.507599 
M237.667480,744.766602 
	C236.524063,747.106506 234.721268,749.346558 234.349533,751.803223 
	C232.589859,763.432495 245.296555,777.940491 257.076752,778.102905 
	C261.733276,778.167114 266.473846,777.658020 271.031281,778.356140 
	C284.930542,780.485046 298.703369,780.093872 312.646332,778.498535 
	C320.821106,777.563232 329.218933,778.685425 337.516510,778.690125 
	C350.732269,778.697571 364.041412,779.494202 377.138916,778.206238 
	C391.701080,776.774292 398.106049,768.060120 397.868317,753.379944 
	C397.633301,738.867493 387.650085,728.194092 373.261993,728.106140 
	C335.996155,727.878418 298.724335,727.736450 261.463165,728.208984 
	C251.245819,728.338501 242.381897,732.758545 237.667480,744.766602 
M267.369110,609.947815 
	C293.983154,609.944092 320.597229,609.940857 347.211273,609.936401 
	C356.193512,609.934937 365.204437,610.387695 374.151550,609.825684 
	C389.424805,608.866211 405.151581,592.782898 395.222107,572.753113 
	C389.506104,561.222839 378.833984,558.586121 367.675842,558.459473 
	C333.747772,558.074402 299.811127,558.215454 265.880066,558.459961 
	C255.856766,558.532166 246.751129,561.850159 240.911591,570.605957 
	C237.328049,575.979187 232.010239,581.800415 235.208527,588.666016 
	C240.002136,598.956116 248.710083,611.953735 267.369110,609.947815 
M387.354767,390.875397 
	C383.228119,389.873047 379.147491,388.390900 374.963196,387.989319 
	C369.680847,387.482361 364.313995,387.851227 358.983582,387.851288 
	C326.334808,387.851654 293.684235,387.687225 261.039093,388.032227 
	C255.985657,388.085602 250.125397,389.267365 246.091553,392.040955 
	C237.933411,397.650208 234.971725,412.900726 238.716125,423.068542 
	C242.258484,432.687744 250.432617,437.925262 262.196259,437.940582 
	C292.179810,437.979553 322.163422,437.966705 352.147003,437.967194 
	C360.142548,437.967316 368.139160,437.852631 376.133423,437.946167 
	C389.777100,438.105774 402.802887,422.270355 398.769501,407.201996 
	C396.978729,400.511871 393.101593,396.209259 387.354767,390.875397 
M1480.988281,572.472961 
	C1466.385010,572.472961 1451.781860,572.472961 1436.096191,572.472961 
	C1432.377075,594.181030 1430.430054,615.368530 1428.064209,636.814819 
	C1430.393921,637.266174 1431.655029,637.720337 1432.917480,637.723755 
	C1453.890259,637.780396 1474.863403,637.860046 1495.835693,637.747314 
	C1502.536499,637.711304 1503.013794,636.971008 1503.886353,630.403259 
	C1505.721313,616.591064 1507.794922,602.807373 1509.387573,588.967834 
	C1509.974487,583.867981 1509.482300,578.643921 1509.482300,572.474060 
	C1500.163574,572.474060 1491.571899,572.474060 1480.988281,572.472961 
z"/>
<path fill="#D186FF" opacity="1.000000" stroke="none" 
	d="
M963.787537,648.000000 
	C963.787903,730.982788 964.012512,812.966675 963.582214,894.947205 
	C963.502747,910.091187 961.404114,925.438660 955.705505,939.686035 
	C952.822815,946.893066 948.405823,953.679016 943.721191,959.935425 
	C931.336975,976.474976 915.719604,989.416443 895.569031,994.771179 
	C883.308655,998.029236 870.633606,1000.119446 857.542114,999.995972 
	C800.898682,999.461670 744.248352,999.601501 687.600525,999.598694 
	C635.617920,999.596130 583.635376,999.752075 531.652771,999.788269 
	C479.335541,999.824707 427.003906,1000.493835 374.709045,999.412231 
	C357.205505,999.050232 339.369995,995.680664 324.663422,983.940979 
	C319.546387,979.856262 312.908630,977.404785 308.518280,972.744446 
	C301.775360,965.586853 295.611755,957.620361 290.572144,949.179260 
	C281.679932,934.285217 279.604309,917.589355 279.812256,900.429443 
	C280.082825,878.104065 279.875366,855.772949 279.873718,833.444275 
	C279.873474,830.193481 279.873657,826.942627 279.873657,823.308655 
	C283.158478,822.887390 285.390533,822.370544 287.626434,822.353394 
	C298.623444,822.268921 309.623016,822.206848 320.618713,822.355225 
	C328.681824,822.464050 329.797974,823.603149 329.946136,831.720154 
	C330.104279,840.382080 329.980896,849.049133 329.980377,857.713989 
	C329.979523,872.710876 330.172211,887.710999 329.917755,902.703552 
	C329.707336,915.102295 335.022949,925.504211 342.938660,933.895447 
	C351.434662,942.902039 362.414642,948.227844 375.595917,948.219360 
	C538.228455,948.115112 700.861023,948.120300 863.493530,948.213135 
	C874.494324,948.219421 883.657837,944.777527 893.095215,938.910034 
	C907.677917,929.843567 912.145874,916.430298 912.161987,901.227173 
	C912.387085,688.938599 912.275818,476.649658 912.411804,264.360931 
	C912.419434,252.437500 908.173523,241.961380 901.508789,233.097610 
	C894.612976,223.926483 883.726074,219.651825 872.276245,217.861237 
	C869.998779,217.505081 867.618591,217.803543 865.285767,217.803543 
	C702.653198,217.803192 540.019714,218.056641 377.388947,217.519394 
	C354.032349,217.442245 336.969391,232.880325 330.373993,253.952209 
	C329.607300,256.401642 329.994690,259.239105 329.992218,261.896790 
	C329.970459,285.225220 330.011414,308.553741 329.970215,331.882080 
	C329.950256,343.181580 329.572723,343.675323 318.017151,343.434143 
	C311.752502,343.303345 305.513672,342.187866 299.245544,341.893921 
	C293.336548,341.616791 287.404388,341.834442 280.748230,341.834442 
	C280.391479,337.874603 279.914703,335.004486 279.908356,332.133331 
	C279.851837,306.472168 279.279236,280.793060 280.039124,255.154251 
	C280.895935,226.246490 294.171570,203.577881 316.815613,185.658508 
	C329.117432,175.923492 343.224976,171.068665 357.763397,166.744156 
	C360.242401,166.006760 363.039795,166.198654 365.690125,166.198318 
	C536.654297,166.177170 707.618469,166.177124 878.582642,166.191360 
	C887.446106,166.192108 908.072571,173.345840 915.415710,178.606583 
	C921.297607,182.820496 928.239807,185.928314 933.179688,191.014587 
	C949.457581,207.774857 960.407471,227.396301 961.761719,251.370102 
	C962.490479,264.271484 963.702698,277.177277 963.718384,290.082275 
	C963.862854,409.054718 963.793396,528.027405 963.787537,648.000000 
z"/>
<path fill="#D085FF" opacity="1.000000" stroke="none" 
	d="
M518.031738,530.684326 
	C519.773743,524.450684 521.678101,519.147827 523.093262,513.717529 
	C523.823914,510.913849 524.314331,507.776398 523.835754,504.973785 
	C521.182983,489.440002 522.046936,474.087250 523.726013,458.453125 
	C525.128540,445.393951 528.391541,433.313568 534.394531,421.896393 
	C539.342651,412.485596 545.923035,404.605743 554.371216,397.632477 
	C570.374146,384.423462 589.727905,378.659729 608.148621,370.763489 
	C611.992004,369.115967 616.536316,369.138947 620.734009,368.276978 
	C642.832214,363.739227 665.073853,360.872009 687.709778,362.113007 
	C692.028015,362.349701 696.427673,362.608398 700.689697,362.068146 
	C711.613708,360.683502 720.319580,366.591400 728.073792,372.113434 
	C735.457214,377.371429 740.100952,386.279541 739.854553,396.185425 
	C739.725220,401.385956 741.697510,404.920319 745.273743,408.356903 
	C757.975708,420.562775 763.547729,435.839935 765.959106,453.154999 
	C768.547852,471.743439 768.427368,490.120209 766.831299,508.685944 
	C766.545959,512.005005 768.257935,515.776917 769.865967,518.921204 
	C773.665283,526.350281 774.035095,533.803040 773.054016,542.059021 
	C770.879089,560.361023 762.150085,575.724854 752.981262,590.983582 
	C751.307129,593.769714 748.382141,595.773560 746.268188,598.331726 
	C739.312744,606.748718 731.222656,614.551147 725.917236,623.919739 
	C720.386292,633.686584 714.758545,644.431946 719.308594,658.042786 
	C733.574890,660.710754 748.555176,662.892883 763.223450,666.385620 
	C792.867249,673.444275 820.769104,683.993652 841.376160,708.257385 
	C859.368408,729.442505 865.423340,754.076599 863.490234,781.190308 
	C863.355286,783.083740 862.720032,785.125488 861.727661,786.734436 
	C859.827026,789.816284 857.505737,792.639038 855.352600,795.564636 
	C849.119019,804.034424 841.008362,806.369019 830.377014,806.334778 
	C706.444885,805.936218 582.510986,806.081604 458.577606,806.075684 
	C440.064758,806.074829 428.336517,794.444641 427.806000,776.012573 
	C427.450623,763.666443 428.169403,751.449829 432.070221,739.697571 
	C435.729065,728.674133 441.251221,718.841675 449.066620,709.827698 
	C462.915802,693.854553 480.100861,683.258057 499.075958,675.054138 
	C503.265381,673.242798 508.066345,672.900574 512.493652,671.574341 
	C525.421875,667.701416 538.409607,664.516785 552.008484,663.684204 
	C557.458618,663.350464 562.925903,660.995483 568.046143,658.777222 
	C569.928955,657.961609 572.128845,654.765259 571.949036,652.866455 
	C571.334290,646.374451 570.758179,639.542236 568.272278,633.637573 
	C563.774109,622.953064 556.909058,613.723694 548.738770,605.193176 
	C535.912354,591.801147 525.387695,576.553223 521.230103,558.072266 
	C519.285950,549.430115 519.018616,540.410706 518.031738,530.684326 
M729.000000,761.856812 
	C738.992615,761.856323 748.985168,761.855225 758.977783,761.855530 
	C768.637695,761.855835 778.299438,761.973877 787.957092,761.826172 
	C797.747681,761.676453 807.610718,762.495178 818.301880,761.185608 
	C816.748108,755.869568 816.170471,751.510376 814.277893,747.826660 
	C805.643250,731.020020 791.053650,720.557312 773.895325,714.656616 
	C760.970215,710.211609 747.033569,708.664368 733.510742,706.012939 
	C718.597290,703.088806 703.401245,700.539001 690.570862,691.958862 
	C680.121033,684.970459 669.736145,677.046448 673.555786,661.558411 
	C674.098450,659.358154 673.750916,656.908508 673.642456,654.582397 
	C672.887451,638.402222 675.566284,623.083496 683.672302,608.744202 
	C688.880798,599.530640 693.545410,590.084351 700.657532,582.051636 
	C707.199585,574.662720 713.284973,566.867798 719.509766,559.201599 
	C720.332214,558.188721 720.961426,556.938782 721.389160,555.698364 
	C724.411255,546.933105 730.750244,538.201172 721.296631,529.321960 
	C720.145447,528.240723 720.210205,525.570374 720.189392,523.631348 
	C720.100708,515.355164 721.733887,507.349182 723.069702,499.188995 
	C725.910461,481.835663 723.380554,464.235901 719.365906,447.049744 
	C718.926331,445.167938 717.999939,443.048218 716.613159,441.803009 
	C711.789185,437.471466 709.788086,430.608398 703.276733,427.677460 
	C701.138977,426.715179 699.863770,423.775208 698.269531,421.682281 
	C696.290039,419.083740 694.904358,415.608643 692.332458,413.985596 
	C688.511719,411.574463 688.557312,408.343170 688.889038,404.901672 
	C670.348450,401.824371 652.778015,405.922150 635.165955,408.687073 
	C620.744507,410.951111 607.545898,416.912598 594.164734,422.636780 
	C583.628357,427.144012 576.012695,433.431915 572.201477,444.026794 
	C570.660217,448.311432 569.961609,452.940826 569.239075,457.470703 
	C566.710876,473.321686 566.971497,489.138062 569.150574,505.068787 
	C570.194763,512.703003 572.750000,521.212769 566.954590,528.027832 
	C560.689819,535.394897 562.182373,543.047668 565.824036,550.116455 
	C571.251709,560.651917 577.597900,570.633545 586.161377,579.257080 
	C592.104553,585.242004 596.678345,592.697937 601.275146,599.873779 
	C604.967896,605.638367 608.381104,611.737610 610.821411,618.108521 
	C613.729797,625.701416 616.358398,633.619019 617.469238,641.623474 
	C618.649780,650.129944 618.099548,658.906982 617.911560,667.557312 
	C617.841675,670.769897 616.877563,674.024719 615.939941,677.145813 
	C612.333618,689.150513 601.851562,694.198669 591.679565,697.231628 
	C571.892212,703.131592 551.659058,707.904114 531.317993,711.477905 
	C510.298981,715.170837 493.381805,724.982056 480.244446,741.203491 
	C475.920380,746.542725 472.410065,753.200684 472.909180,761.857483 
	C557.911316,761.857483 642.455688,761.857483 729.000000,761.856812 
z"/>
<path fill="#C87CFF" opacity="1.000000" stroke="none" 
	d="
M1351.833862,729.895874 
	C1350.854370,758.634705 1346.733276,785.773865 1335.287109,811.383728 
	C1314.678711,857.493103 1278.609619,884.995789 1230.575562,897.840942 
	C1209.931152,903.361572 1188.839722,905.831848 1167.460693,905.824341 
	C1125.492432,905.809570 1083.524170,905.822266 1041.555908,905.823669 
	C1038.281006,905.823792 1035.006104,905.823669 1030.211304,905.823669 
	C1042.959106,799.649109 1055.587402,694.468689 1068.260254,588.918823 
	C1072.251587,588.693115 1075.181641,588.385193 1078.112061,588.383179 
	C1118.081787,588.355835 1158.061890,587.822144 1198.017700,588.570068 
	C1224.285278,589.061829 1250.445435,591.800537 1275.137939,602.094788 
	C1314.957153,618.695312 1340.025879,647.664185 1347.961670,690.346619 
	C1350.316162,703.010254 1350.602295,716.058350 1351.833862,729.895874 
M1122.517944,759.777161 
	C1120.509888,787.465942 1114.960938,814.824524 1113.740234,842.091370 
	C1115.350098,843.006104 1115.913574,843.605591 1116.478760,843.607178 
	C1141.729980,843.679321 1167.136230,846.245667 1192.164795,841.764709 
	C1229.129028,835.146912 1255.498901,814.885498 1267.482910,778.477539 
	C1274.828003,756.162781 1277.500122,733.088562 1273.795532,709.700867 
	C1270.741333,690.419983 1261.609741,674.840637 1244.688110,664.100159 
	C1228.924561,654.094482 1211.329346,651.125305 1193.321167,650.343933 
	C1176.704224,649.622864 1160.031860,650.147278 1143.384155,650.207520 
	C1141.137695,650.215637 1138.893188,650.716064 1135.973755,651.070312 
	C1133.996948,666.489685 1131.970825,681.595398 1130.142456,696.725098 
	C1127.674316,717.150330 1125.358643,737.593933 1122.517944,759.777161 
z"/>
<path fill="#A860FF" opacity="1.000000" stroke="none" 
	d="
M2662.861084,676.854858 
	C2681.347656,680.138123 2697.668457,686.394104 2712.031738,697.295227 
	C2730.293945,711.155457 2741.855469,729.450500 2746.586914,751.744080 
	C2754.079834,787.044861 2749.291260,820.741516 2730.470215,851.704712 
	C2711.340088,883.176514 2682.325928,900.944397 2646.640869,907.560425 
	C2621.206299,912.276184 2595.556396,912.240417 2570.568115,904.369141 
	C2528.930664,891.253296 2504.554199,863.144836 2499.848633,819.467468 
	C2495.885986,782.682861 2503.462402,748.551697 2527.378906,719.326172 
	C2545.852295,696.751709 2570.350098,684.129517 2598.524414,678.094238 
	C2619.592529,673.581177 2640.771484,673.276672 2662.861084,676.854858 
M2669.762207,820.470581 
	C2676.348145,805.587097 2679.185059,789.966064 2677.858154,773.798096 
	C2676.320801,755.064331 2669.445557,738.840210 2650.203125,732.585083 
	C2624.470215,724.220032 2595.204102,731.606995 2581.214111,759.178650 
	C2571.961182,777.414978 2568.413086,796.661743 2571.745850,817.127319 
	C2575.612061,840.866943 2591.284912,855.130066 2615.163330,855.751892 
	C2640.633057,856.415222 2658.005371,844.084778 2669.762207,820.470581 
z"/>
<path fill="#A860FF" opacity="1.000000" stroke="none" 
	d="
M3205.104980,679.793030 
	C3229.622070,679.778381 3253.252930,679.778381 3278.068359,679.778381 
	C3276.764404,683.079895 3276.071533,685.525330 3274.895996,687.710999 
	C3245.390869,742.562927 3215.836670,797.388367 3186.287354,852.216248 
	C3164.797119,892.091125 3143.271729,931.947083 3121.823975,971.844727 
	C3114.130615,986.156311 3114.212891,986.201416 3097.616699,986.202148 
	C3080.621094,986.202820 3063.625244,986.225281 3046.629639,986.180237 
	C3043.454590,986.171814 3040.280029,985.889221 3035.682617,985.663147 
	C3038.806152,980.255127 3041.224609,975.995117 3043.711670,971.775391 
	C3056.055908,950.828979 3068.308105,929.826965 3080.854004,909.001892 
	C3083.865479,904.002747 3084.142578,899.572754 3082.381348,893.979675 
	C3061.590820,827.952576 3041.056885,761.844727 3020.484375,695.749207 
	C3019.012451,691.020813 3017.767334,686.221924 3016.417480,681.457764 
	C3023.814209,679.432007 3078.737549,678.926331 3092.195801,680.802673 
	C3104.003662,730.029724 3115.911133,779.671387 3127.818359,829.313049 
	C3128.443848,829.369446 3129.069336,829.425842 3129.694824,829.482239 
	C3134.861816,818.747253 3140.106689,808.048950 3145.181641,797.270630 
	C3162.630859,760.211853 3180.020508,723.125061 3197.432861,686.048950 
	C3198.844238,683.043518 3199.927979,679.681580 3205.104980,679.793030 
z"/>
<path fill="#A861FF" opacity="1.000000" stroke="none" 
	d="
M2323.443848,882.443481 
	C2312.738770,869.143127 2309.097900,854.110535 2308.079834,838.233948 
	C2306.792236,818.146729 2310.828369,798.472229 2312.986328,778.658997 
	C2314.707031,762.859558 2316.700684,747.089905 2318.711914,730.137878 
	C2303.794678,730.137878 2289.960205,730.137878 2274.774414,730.137878 
	C2276.795410,712.988892 2278.675049,697.040283 2280.674805,680.071411 
	C2297.020996,680.071411 2312.848145,680.071411 2329.775146,680.071411 
	C2332.335693,659.210632 2334.783691,639.264771 2337.303223,618.738464 
	C2360.063721,618.738464 2382.163574,618.738464 2405.119141,618.738464 
	C2402.789062,638.845886 2400.509033,658.520630 2398.066406,679.596436 
	C2424.757812,679.596436 2450.830811,679.596436 2478.223145,679.596436 
	C2476.249268,697.042175 2474.443115,713.003113 2472.535889,729.860718 
	C2445.382080,729.860718 2419.201172,729.860718 2392.422363,729.860718 
	C2390.336914,745.193726 2388.084717,759.584045 2386.489990,774.046997 
	C2384.633545,790.884216 2382.566895,807.761597 2382.064453,824.665344 
	C2381.642334,838.867371 2390.151123,848.352905 2403.751709,852.135742 
	C2413.909180,854.960938 2424.178223,854.636841 2434.444580,853.116455 
	C2440.945068,852.153809 2447.385742,850.786865 2455.092529,849.374084 
	C2456.160889,866.309448 2457.172852,882.352905 2458.177490,898.277588 
	C2445.785156,905.304932 2433.089844,908.255249 2420.239746,909.357361 
	C2401.343506,910.977966 2382.386963,911.270142 2363.684570,906.384277 
	C2348.119629,902.317993 2334.494873,895.338867 2323.443848,882.443481 
z"/>
<path fill="#A861FF" opacity="1.000000" stroke="none" 
	d="
M2252.423828,712.578064 
	C2247.168701,725.247803 2242.211670,737.218262 2237.039551,749.708252 
	C2235.082031,748.899536 2233.482666,748.524780 2232.207031,747.668396 
	C2216.441406,737.083008 2198.555664,732.578491 2180.111084,732.619995 
	C2140.209961,732.709839 2115.473145,755.242554 2112.104248,794.770142 
	C2111.516357,801.666626 2111.580078,808.907715 2113.012695,815.634033 
	C2117.669678,837.498169 2134.491211,850.539612 2158.394287,852.103088 
	C2178.523193,853.419678 2197.418213,849.060669 2215.452881,840.355713 
	C2218.440430,838.913635 2221.448242,837.513733 2224.463623,836.130981 
	C2224.705566,836.019958 2225.078613,836.195251 2226.492188,836.386597 
	C2231.699951,852.210083 2237.061279,868.500366 2242.701172,885.636047 
	C2238.824463,888.146301 2235.449463,890.771240 2231.709229,892.680420 
	C2211.568115,902.961304 2190.115479,909.049255 2167.567871,909.755432 
	C2152.997559,910.211731 2138.131592,909.996460 2123.798828,907.642273 
	C2079.996094,900.447754 2045.021362,868.951904 2039.667969,820.197510 
	C2036.906860,795.051147 2040.532837,770.997803 2050.281738,747.947327 
	C2066.350830,709.953186 2096.500244,688.606140 2135.489258,679.034607 
	C2167.631104,671.144104 2199.660645,672.661865 2230.771729,684.370667 
	C2239.995605,687.842163 2248.550049,693.091125 2258.180908,697.910767 
	C2256.032471,703.408325 2254.377441,707.643616 2252.423828,712.578064 
z"/>
<path fill="#A964FF" opacity="1.000000" stroke="none" 
	d="
M1950.664551,450.703400 
	C1949.984375,454.487091 1949.965576,457.754303 1945.639282,457.752899 
	C1933.309692,457.748962 1920.979858,457.812531 1908.650635,457.752625 
	C1906.736206,457.743317 1904.824097,457.224976 1902.152954,456.829834 
	C1909.991821,407.892303 1917.759521,359.400238 1925.610718,310.385590 
	C1939.745605,310.385590 1953.217651,310.385590 1967.927734,310.385590 
	C1966.700562,319.436584 1965.535645,328.028442 1964.056885,338.935394 
	C1967.211670,334.783905 1968.905640,332.438751 1970.717773,330.188660 
	C1986.905396,310.087646 2008.338013,303.470062 2033.041748,307.325897 
	C2047.117432,309.522858 2057.279541,317.831390 2062.140381,331.756592 
	C2062.555664,332.945831 2063.299316,334.020264 2064.298096,335.925354 
	C2066.778076,332.940338 2068.774902,330.465973 2070.845947,328.055267 
	C2086.321533,310.041779 2106.501709,303.632294 2129.233154,306.768280 
	C2153.093018,310.059937 2163.905273,322.446747 2165.568848,349.257477 
	C2166.118896,358.125519 2164.846680,367.210754 2163.544678,376.069885 
	C2159.773438,401.732788 2155.574707,427.333008 2151.493652,452.949829 
	C2151.292236,454.213196 2150.614990,455.400696 2149.960693,457.157104 
	C2134.721191,457.157104 2119.547852,457.157104 2103.494385,457.157104 
	C2103.724609,454.007812 2103.731689,450.817352 2104.221436,447.702759 
	C2107.889648,424.380310 2111.743896,401.086700 2115.321045,377.750519 
	C2116.175049,372.180389 2116.693848,366.467133 2116.503418,360.848969 
	C2116.170898,351.031097 2111.250000,346.420441 2101.512695,345.811951 
	C2080.842285,344.520172 2065.429199,357.819336 2062.014648,379.956818 
	C2058.516846,402.635223 2055.096680,425.325623 2051.563477,447.998474 
	C2051.105957,450.934906 2050.177979,453.798065 2049.342041,457.209229 
	C2034.033081,457.209229 2018.892212,457.209229 2002.973999,457.209229 
	C2004.988037,444.124298 2006.851562,431.678711 2008.829834,419.251404 
	C2011.130005,404.802063 2013.553467,390.372406 2015.864014,375.924713 
	C2016.231323,373.627533 2016.335693,371.283478 2016.478760,368.955994 
	C2017.668945,349.600433 2006.538330,340.948151 1988.213867,347.422485 
	C1972.537842,352.961121 1964.478760,364.836212 1961.933838,380.919220 
	C1958.296143,403.909973 1954.562500,426.885529 1950.664551,450.703400 
z"/>
<path fill="#A861FF" opacity="1.000000" stroke="none" 
	d="
M2876.000732,828.191650 
	C2872.831543,854.405334 2869.723877,879.724060 2866.599609,905.175354 
	C2841.354004,905.175354 2817.202148,905.175354 2791.981201,905.175354 
	C2801.010254,830.000488 2809.951172,755.559387 2818.968262,680.483093 
	C2839.966309,680.483093 2860.416748,680.483093 2881.818359,680.483093 
	C2883.279053,698.071350 2877.079834,715.088867 2877.905029,734.813232 
	C2880.588623,730.282898 2882.207275,727.585266 2883.792969,724.868469 
	C2896.864014,702.470947 2914.376221,685.442871 2940.334229,679.104431 
	C2947.068604,677.459961 2954.089111,676.780518 2961.023682,676.215271 
	C2969.889160,675.492676 2978.800293,675.335022 2988.208496,674.910645 
	C2988.208496,696.934753 2988.208496,718.402649 2988.208496,740.904358 
	C2977.919678,741.943420 2968.447021,742.870239 2958.981689,743.863953 
	C2948.740234,744.939209 2938.442139,745.671997 2928.280273,747.265747 
	C2901.863037,751.408997 2883.991699,771.192444 2879.886230,798.630066 
	C2878.459473,808.162842 2877.328125,817.739868 2876.000732,828.191650 
z"/>
<path fill="#C77CFF" opacity="1.000000" stroke="none" 
	d="
M1629.725098,685.794067 
	C1627.665161,702.458313 1625.664795,718.237366 1623.664551,734.016479 
	C1624.275513,734.269836 1624.886353,734.523193 1625.497192,734.776489 
	C1627.079956,731.758972 1628.572510,728.690063 1630.259644,725.731995 
	C1642.904663,703.560425 1659.940918,686.552551 1685.271606,679.521545 
	C1689.733276,678.283142 1694.339844,677.267212 1698.940430,676.887329 
	C1710.792114,675.908813 1722.677979,675.344360 1735.587402,674.550659 
	C1735.845947,696.978394 1736.729614,718.754456 1733.590454,741.147400 
	C1724.159424,742.085999 1714.974365,743.020813 1705.784912,743.909058 
	C1696.195679,744.835754 1686.457397,744.959595 1677.036133,746.755188 
	C1643.043213,753.234009 1629.962646,774.409790 1626.049927,803.693359 
	C1622.664551,829.030945 1619.627930,854.415344 1616.471680,879.783325 
	C1615.449463,887.999329 1614.537109,896.229065 1613.497192,905.111816 
	C1588.976196,905.111816 1564.898804,905.111816 1541.018677,905.111816 
	C1538.369873,897.285767 1564.039795,697.529053 1566.753418,680.840515 
	C1568.497681,680.526245 1570.395386,679.896362 1572.296265,679.886963 
	C1588.952759,679.805481 1605.609863,679.810547 1622.266724,679.850586 
	C1625.820679,679.859131 1630.108276,679.026855 1629.725098,685.794067 
z"/>
<path fill="#C97FFE" opacity="1.000000" stroke="none" 
	d="
M1176.216064,253.416443 
	C1185.574341,257.884583 1194.873535,260.987213 1202.181030,269.651001 
	C1196.451050,281.100098 1190.589355,292.812317 1184.181641,305.615631 
	C1179.829224,303.107117 1176.427979,301.309143 1173.189819,299.254456 
	C1150.970703,285.155640 1113.984741,284.063477 1092.390991,301.904999 
	C1086.123413,307.083374 1080.310669,313.595551 1076.369751,320.657318 
	C1065.199585,340.673096 1060.658325,362.278717 1065.774292,385.067596 
	C1070.311157,405.277100 1084.742554,416.767639 1105.380371,418.238464 
	C1128.038086,419.853210 1148.940796,414.917572 1168.527344,401.947754 
	C1174.105469,412.930084 1176.679321,424.188080 1179.882690,435.195374 
	C1181.038086,439.165680 1177.905396,441.242188 1175.143188,443.147888 
	C1165.135498,450.052155 1153.957520,454.301819 1142.173584,456.807861 
	C1117.405518,462.075195 1092.613403,462.873047 1068.404297,454.273041 
	C1039.299561,443.933899 1021.302612,423.135406 1016.213562,392.813660 
	C1010.214050,357.067963 1016.231262,323.131714 1037.560303,293.113525 
	C1056.782227,266.060913 1083.800537,252.189423 1116.475708,247.820648 
	C1136.713867,245.114746 1156.185791,247.301147 1176.216064,253.416443 
z"/>
<path fill="#BC73FF" opacity="1.000000" stroke="none" 
	d="
M1860.035034,908.738525 
	C1832.066772,906.953430 1806.738892,898.217102 1785.593750,879.389648 
	C1771.266357,866.632629 1762.073730,850.395447 1758.603271,831.642273 
	C1751.264404,791.984436 1757.636108,754.775940 1782.293823,722.102173 
	C1800.217163,698.352295 1824.741089,684.400330 1853.712769,678.135010 
	C1855.982544,677.644165 1858.271606,677.242004 1861.295776,677.672974 
	C1863.760742,687.888000 1865.518921,697.222046 1867.165039,706.575928 
	C1867.439941,708.138611 1867.343140,709.796570 1867.215698,711.394409 
	C1866.877075,715.643799 1866.428101,719.884460 1865.583496,724.635864 
	C1846.313232,734.017029 1834.713501,748.570740 1829.414917,769.797974 
	C1842.422119,770.215454 1854.223633,770.594238 1866.020386,771.816772 
	C1866.641479,778.893494 1867.235474,785.129761 1867.901611,791.358337 
	C1868.568359,797.592834 1869.306885,803.819702 1870.013916,810.049927 
	C1865.799927,810.494080 1861.591431,811.243835 1857.370728,811.321533 
	C1847.183228,811.509033 1836.989990,811.382324 1826.175537,811.382324 
	C1825.276489,822.798767 1829.253906,831.219360 1835.355103,838.844543 
	C1842.006470,847.157166 1850.983154,851.975586 1861.471313,856.569702 
	C1861.338745,874.896545 1860.686890,891.817505 1860.035034,908.738525 
z"/>
<path fill="#C87CFF" opacity="1.000000" stroke="none" 
	d="
M1415.973145,739.796387 
	C1418.275513,719.790833 1420.528687,700.684265 1422.763916,681.729187 
	C1429.836548,679.430664 1482.365356,678.783081 1497.541016,680.885681 
	C1488.590698,755.448364 1479.637695,830.033752 1470.620850,905.150940 
	C1445.397705,905.150940 1421.294312,905.150940 1395.893677,905.150940 
	C1402.624268,849.890625 1409.274170,795.292969 1415.973145,739.796387 
z"/>
<path fill="#C97FFE" opacity="1.000000" stroke="none" 
	d="
M1321.936035,431.937561 
	C1320.745117,433.035309 1319.333984,433.972168 1318.396606,435.255096 
	C1306.119507,452.057953 1289.597168,460.447906 1268.808960,460.210754 
	C1262.843140,460.142700 1256.660522,460.396240 1250.961304,458.968903 
	C1229.832031,453.677277 1219.123779,439.515869 1218.501343,416.720337 
	C1218.142700,403.577789 1220.589355,390.290131 1222.484741,377.170502 
	C1225.426147,356.809296 1228.948975,336.531525 1232.308716,316.232208 
	C1232.622803,314.334534 1233.533936,312.535736 1234.244507,310.468414 
	C1249.986816,310.468414 1265.468140,310.468414 1281.822754,310.468414 
	C1280.333130,320.661499 1279.054810,330.109650 1277.555298,339.522583 
	C1274.527466,358.529541 1271.213135,377.492157 1268.329834,396.520447 
	C1265.690552,413.939667 1276.633423,424.090332 1293.812988,420.531036 
	C1310.924316,416.985901 1323.203369,404.072876 1325.878540,386.643280 
	C1329.402710,363.680542 1332.815308,340.700653 1336.359619,317.741058 
	C1336.709351,315.476410 1337.642456,313.301819 1338.484131,310.485138 
	C1353.995483,310.485138 1369.434326,310.485138 1386.277710,310.485138 
	C1378.537720,359.563080 1370.910400,407.926575 1363.163696,457.046448 
	C1349.214722,457.046448 1335.426147,457.046448 1320.354126,457.046448 
	C1321.017212,449.277679 1321.676758,441.550842 1322.647583,432.752502 
	C1322.891357,430.913239 1322.823853,430.145416 1322.756348,429.377625 
	C1322.482910,430.230927 1322.209473,431.084259 1321.936035,431.937561 
z"/>
<path fill="#A964FF" opacity="1.000000" stroke="none" 
	d="
M1859.502197,324.470276 
	C1877.124878,341.718811 1880.392456,362.764801 1877.179810,385.002960 
	C1871.422974,424.853027 1846.821167,450.680237 1807.592407,458.830048 
	C1791.096436,462.257141 1774.475586,461.680817 1758.242920,456.851227 
	C1733.389893,449.456940 1716.230225,429.135284 1714.559814,402.917206 
	C1712.722046,374.071381 1720.432495,348.198212 1742.710327,328.066223 
	C1758.257202,314.016693 1777.027832,307.928436 1797.365356,306.366760 
	C1813.446777,305.131836 1829.420898,306.470276 1844.082764,314.084015 
	C1849.344849,316.816498 1854.039062,320.642242 1859.502197,324.470276 
M1794.461060,424.277374 
	C1804.833862,423.824341 1812.859253,418.851929 1819.136841,410.968414 
	C1828.482788,399.231537 1832.047729,385.368195 1831.526489,370.772186 
	C1830.814209,350.824188 1817.012695,339.608704 1797.429321,342.363007 
	C1785.211060,344.081421 1775.713623,350.304718 1769.399048,361.106964 
	C1761.833496,374.049286 1760.094482,388.119751 1762.120483,402.614014 
	C1764.007446,416.114166 1772.882690,423.548248 1786.695557,424.313507 
	C1788.688232,424.423889 1790.690796,424.355286 1794.461060,424.277374 
z"/>
<path fill="#A965FF" opacity="1.000000" stroke="none" 
	d="
M2216.624268,338.724487 
	C2240.721191,310.412659 2271.185547,301.718994 2306.033447,307.991302 
	C2342.395020,314.536072 2356.531250,343.145721 2355.087158,375.067535 
	C2354.791260,381.609100 2353.481201,388.104797 2352.500244,395.695374 
	C2316.045166,395.695374 2280.270020,395.695374 2243.920410,395.695374 
	C2243.396240,407.177917 2247.513428,415.216858 2256.276855,420.075348 
	C2261.662598,423.061249 2267.935547,425.300568 2274.025879,426.002258 
	C2292.506104,428.131439 2310.531494,425.865601 2327.526855,417.675873 
	C2328.949707,416.990204 2330.513672,416.597229 2332.866943,415.766510 
	C2336.074463,425.649139 2339.103027,434.980194 2342.300537,444.831665 
	C2338.817383,446.788330 2336.092285,448.660706 2333.112549,449.940033 
	C2304.266113,462.324982 2274.503174,464.300293 2244.357666,456.164734 
	C2209.815918,446.842743 2195.341553,419.779541 2198.601074,386.348114 
	C2200.268311,369.250885 2205.456543,353.152161 2216.624268,338.724487 
M2286.988281,336.171997 
	C2265.778076,337.463745 2248.008789,352.764313 2249.072754,369.534058 
	C2271.461914,369.534393 2293.894043,370.234253 2316.121338,369.132751 
	C2319.062012,349.912689 2308.920166,338.205902 2286.988281,336.171997 
z"/>
<path fill="#C47BFF" opacity="1.000000" stroke="none" 
	d="
M1410.819092,449.254669 
	C1403.583130,444.285828 1403.503906,444.250885 1406.197754,438.139709 
	C1409.509644,430.626068 1412.970581,423.178101 1416.454834,415.508881 
	C1419.110352,416.417206 1420.737427,416.771240 1422.177124,417.496948 
	C1439.602539,426.281464 1458.247314,428.832947 1477.444458,427.960266 
	C1485.088501,427.612793 1492.727539,426.371979 1498.782837,420.851776 
	C1506.817505,413.527130 1505.477173,405.062164 1495.193970,401.990662 
	C1487.936646,399.822998 1480.226440,399.139954 1472.698120,397.919037 
	C1463.522095,396.430939 1454.057617,396.008911 1445.189575,393.475250 
	C1423.302246,387.222015 1417.320435,375.358917 1417.039551,358.454926 
	C1416.788574,343.338531 1423.998779,331.060974 1436.390991,321.984222 
	C1449.451904,312.417725 1464.495972,308.143616 1480.147583,306.607941 
	C1499.837524,304.675995 1519.417847,306.294281 1538.163818,313.316223 
	C1543.027222,315.137970 1547.515625,317.960632 1553.285889,320.886108 
	C1548.691162,331.103729 1544.531372,340.354034 1540.412842,349.512665 
	C1530.813232,346.558929 1522.228516,342.676758 1513.283447,341.472229 
	C1501.509644,339.886780 1489.434814,339.893097 1477.526001,340.295074 
	C1473.266968,340.438812 1468.836304,343.284851 1464.987305,345.699768 
	C1460.757568,348.353668 1458.748779,352.660797 1460.110596,357.813171 
	C1461.384644,362.633667 1465.449829,364.548096 1469.707642,365.583496 
	C1474.535400,366.757477 1479.532471,367.221466 1484.440796,368.080750 
	C1495.228149,369.969269 1506.007446,371.904694 1516.786011,373.843201 
	C1518.092285,374.078125 1519.418335,374.327179 1520.660522,374.776306 
	C1542.558838,382.694153 1549.962646,395.756104 1544.622437,420.256989 
	C1541.748657,433.442444 1532.823120,442.414917 1521.571411,449.073120 
	C1509.605835,456.153870 1496.511963,459.473389 1482.623169,460.178558 
	C1464.633057,461.092041 1446.747559,460.854889 1429.261841,456.017944 
	C1423.207031,454.343048 1417.398438,451.778809 1410.819092,449.254669 
z"/>
<path fill="#B269FF" opacity="1.000000" stroke="none" 
	d="
M1866.022949,724.128540 
	C1866.428101,719.884460 1866.877075,715.643799 1867.215698,711.394409 
	C1867.343140,709.796570 1867.439941,708.138611 1867.165039,706.575928 
	C1865.518921,697.222046 1863.760742,687.888000 1862.045166,677.787537 
	C1885.682617,672.424500 1909.105835,673.189636 1931.861816,681.224182 
	C1967.823975,693.921509 1988.015747,719.829346 1994.194946,757.226990 
	C1997.050781,774.511475 1996.066040,791.622192 1993.425659,808.542358 
	C1992.970581,808.976135 1992.747192,809.229004 1992.483643,809.428772 
	C1992.228760,809.621887 1991.933105,809.901917 1991.654419,809.902832 
	C1951.729004,810.032104 1911.803589,810.139282 1870.946045,810.148682 
	C1869.306885,803.819702 1868.568359,797.592834 1867.901611,791.358337 
	C1867.235474,785.129761 1866.641479,778.893494 1866.938965,771.620361 
	C1890.329834,770.580017 1912.797363,770.580017 1934.979980,770.580017 
	C1939.165039,747.019836 1925.746948,726.978455 1904.252563,721.994568 
	C1891.188843,718.965454 1878.601562,720.498535 1866.022949,724.128540 
z"/>
<path fill="#A965FF" opacity="1.000000" stroke="none" 
	d="
M2510.349121,340.393433 
	C2509.994629,343.856201 2509.720703,346.433167 2509.381348,349.624146 
	C2497.413818,350.950012 2485.849121,351.847382 2474.411133,353.581573 
	C2453.221680,356.794312 2441.346191,368.987885 2437.965088,390.101501 
	C2434.546387,411.449371 2431.086182,432.790588 2427.599121,454.127380 
	C2427.447754,455.053040 2426.849854,455.905701 2426.253662,457.260498 
	C2410.793701,457.260498 2395.284424,457.260498 2378.484131,457.260498 
	C2386.384766,408.023376 2394.199219,359.323761 2402.070801,310.266602 
	C2416.241211,310.266602 2429.417236,310.266602 2443.411133,310.266602 
	C2442.047119,320.747009 2440.758545,330.645416 2439.229492,342.393799 
	C2465.928467,306.752350 2481.659668,306.787262 2512.093262,307.059052 
	C2511.925293,317.878815 2512.172363,328.702209 2510.349121,340.393433 
z"/>
<path fill="#D186FF" opacity="1.000000" stroke="none" 
	d="
M237.971344,744.056519 
	C242.381897,732.758545 251.245819,728.338501 261.463165,728.208984 
	C298.724335,727.736450 335.996155,727.878418 373.261993,728.106140 
	C387.650085,728.194092 397.633301,738.867493 397.868317,753.379944 
	C398.106049,768.060120 391.701080,776.774292 377.138916,778.206238 
	C364.041412,779.494202 350.732269,778.697571 337.516510,778.690125 
	C329.218933,778.685425 320.821106,777.563232 312.646332,778.498535 
	C298.703369,780.093872 284.930542,780.485046 271.031281,778.356140 
	C266.473846,777.658020 261.733276,778.167114 257.076752,778.102905 
	C245.296555,777.940491 232.589859,763.432495 234.349533,751.803223 
	C234.721268,749.346558 236.524063,747.106506 237.971344,744.056519 
z"/>
<path fill="#D086FE" opacity="1.000000" stroke="none" 
	d="
M266.430847,609.947876 
	C248.710083,611.953735 240.002136,598.956116 235.208527,588.666016 
	C232.010239,581.800415 237.328049,575.979187 240.911591,570.605957 
	C246.751129,561.850159 255.856766,558.532166 265.880066,558.459961 
	C299.811127,558.215454 333.747772,558.074402 367.675842,558.459473 
	C378.833984,558.586121 389.506104,561.222839 395.222107,572.753113 
	C405.151581,592.782898 389.424805,608.866211 374.151550,609.825684 
	C365.204437,610.387695 356.193512,609.934937 347.211273,609.936401 
	C320.597229,609.940857 293.983154,609.944092 266.430847,609.947876 
z"/>
<path fill="#D085FE" opacity="1.000000" stroke="none" 
	d="
M387.967102,391.361938 
	C393.101593,396.209259 396.978729,400.511871 398.769501,407.201996 
	C402.802887,422.270355 389.777100,438.105774 376.133423,437.946167 
	C368.139160,437.852631 360.142548,437.967316 352.147003,437.967194 
	C322.163422,437.966705 292.179810,437.979553 262.196259,437.940582 
	C250.432617,437.925262 242.258484,432.687744 238.716125,423.068542 
	C234.971725,412.900726 237.933411,397.650208 246.091553,392.040955 
	C250.125397,389.267365 255.985657,388.085602 261.039093,388.032227 
	C293.684235,387.687225 326.334808,387.851654 358.983582,387.851288 
	C364.313995,387.851227 369.680847,387.482361 374.963196,387.989319 
	C379.147491,388.390900 383.228119,389.873047 387.967102,391.361938 
z"/>
<path fill="#AE69FF" opacity="1.000000" stroke="none" 
	d="
M1622.017944,269.903290 
	C1632.726074,269.832642 1643.434082,269.761963 1655.224121,270.230225 
	C1656.595459,271.285583 1657.008423,271.669189 1657.544678,271.919952 
	C1655.837769,284.032501 1654.130737,296.145081 1652.224731,309.670166 
	C1669.521118,309.670166 1686.281738,309.670166 1704.015137,309.670166 
	C1702.291138,320.898254 1700.793945,330.649628 1699.087158,341.766663 
	C1682.035645,342.648895 1664.860962,341.613647 1646.980591,342.331390 
	C1644.542480,356.717377 1642.082764,370.367462 1639.968384,384.070892 
	C1638.907227,390.948242 1637.945190,397.918152 1637.886353,404.854248 
	C1637.804443,414.530609 1641.763062,420.080414 1651.173340,422.114410 
	C1657.825684,423.552338 1664.945557,423.147888 1671.844238,422.996338 
	C1675.426025,422.917664 1678.980713,421.603271 1683.687256,420.605560 
	C1684.234619,430.413055 1685.112183,439.860352 1685.018188,449.298035 
	C1684.997314,451.397339 1681.923828,454.561646 1679.619263,455.332367 
	C1673.358765,457.426147 1666.786255,459.564240 1660.284058,459.743286 
	C1648.719849,460.061768 1637.116089,458.948883 1624.770996,457.247101 
	C1624.672974,444.851715 1625.873901,433.642700 1625.848389,422.436493 
	C1625.820312,410.051666 1624.421387,397.676697 1624.056274,385.284546 
	C1623.197388,356.133392 1625.471680,326.933899 1622.163696,297.797791 
	C1621.120972,288.612488 1622.011963,279.207642 1622.017944,269.903290 
z"/>
<path fill="#B36BFF" opacity="1.000000" stroke="none" 
	d="
M1860.919678,909.084167 
	C1860.686890,891.817505 1861.338745,874.896545 1861.978882,857.048340 
	C1866.557007,856.795227 1871.138184,857.536194 1875.738281,858.132446 
	C1905.369751,861.973389 1933.220215,855.777588 1959.929443,843.152405 
	C1961.066406,842.614990 1962.323364,842.331665 1964.516113,841.598389 
	C1969.956055,856.480286 1975.256592,870.980530 1980.809448,886.171143 
	C1943.385742,908.694824 1903.221069,912.186462 1860.919678,909.084167 
z"/>
<path fill="#B46DFF" opacity="1.000000" stroke="none" 
	d="
M1621.478638,269.527466 
	C1622.011963,279.207642 1621.120972,288.612488 1622.163696,297.797791 
	C1625.471680,326.933899 1623.197388,356.133392 1624.056274,385.284546 
	C1624.421387,397.676697 1625.820312,410.051666 1625.848389,422.436493 
	C1625.873901,433.642700 1624.672974,444.851715 1624.013306,456.894501 
	C1601.959839,453.980957 1589.954712,436.075500 1589.609009,416.417908 
	C1589.320190,399.984497 1592.649658,384.119568 1595.096069,368.080811 
	C1596.335327,359.956635 1597.488403,351.819275 1598.899780,342.192139 
	C1588.909424,342.192139 1580.149414,342.192139 1570.563354,342.192139 
	C1572.473267,330.706787 1574.140747,320.679901 1575.924805,309.951660 
	C1586.588867,309.951660 1596.460327,309.951660 1607.402100,309.951660 
	C1609.047241,299.958466 1610.581787,290.601746 1612.131348,281.247467 
	C1612.563965,278.635803 1612.988281,276.020905 1613.508911,273.426086 
	C1614.353149,269.219025 1617.109375,268.225159 1621.478638,269.527466 
z"/>
<path fill="#C87DFF" opacity="1.000000" stroke="none" 
	d="
M1481.984253,572.473511 
	C1491.571899,572.474060 1500.163574,572.474060 1509.482300,572.474060 
	C1509.482300,578.643921 1509.974487,583.867981 1509.387573,588.967834 
	C1507.794922,602.807373 1505.721313,616.591064 1503.886353,630.403259 
	C1503.013794,636.971008 1502.536499,637.711304 1495.835693,637.747314 
	C1474.863403,637.860046 1453.890259,637.780396 1432.917480,637.723755 
	C1431.655029,637.720337 1430.393921,637.266174 1428.064209,636.814819 
	C1430.430054,615.368530 1432.377075,594.181030 1436.096191,572.472961 
	C1451.781860,572.472961 1466.385010,572.472961 1481.984253,572.473511 
z"/>
<path fill="#B46DFF" opacity="1.000000" stroke="none" 
	d="
M1657.572266,271.421814 
	C1657.008423,271.669189 1656.595459,271.285583 1656.150879,270.368439 
	C1656.773804,269.878479 1657.308472,270.197144 1657.572266,271.421814 
z"/>
<path fill="#FEFDFF" opacity="1.000000" stroke="none" 
	d="
M728.000000,761.857178 
	C642.455688,761.857483 557.911316,761.857483 472.909180,761.857483 
	C472.410065,753.200684 475.920380,746.542725 480.244446,741.203491 
	C493.381805,724.982056 510.298981,715.170837 531.317993,711.477905 
	C551.659058,707.904114 571.892212,703.131592 591.679565,697.231628 
	C601.851562,694.198669 612.333618,689.150513 615.939941,677.145813 
	C616.877563,674.024719 617.841675,670.769897 617.911560,667.557312 
	C618.099548,658.906982 618.649780,650.129944 617.469238,641.623474 
	C616.358398,633.619019 613.729797,625.701416 610.821411,618.108521 
	C608.381104,611.737610 604.967896,605.638367 601.275146,599.873779 
	C596.678345,592.697937 592.104553,585.242004 586.161377,579.257080 
	C577.597900,570.633545 571.251709,560.651917 565.824036,550.116455 
	C562.182373,543.047668 560.689819,535.394897 566.954590,528.027832 
	C572.750000,521.212769 570.194763,512.703003 569.150574,505.068787 
	C566.971497,489.138062 566.710876,473.321686 569.239075,457.470703 
	C569.961609,452.940826 570.660217,448.311432 572.201477,444.026794 
	C576.012695,433.431915 583.628357,427.144012 594.164734,422.636780 
	C607.545898,416.912598 620.744507,410.951111 635.165955,408.687073 
	C652.778015,405.922150 670.348450,401.824371 688.889038,404.901672 
	C688.557312,408.343170 688.511719,411.574463 692.332458,413.985596 
	C694.904358,415.608643 696.290039,419.083740 698.269531,421.682281 
	C699.863770,423.775208 701.138977,426.715179 703.276733,427.677460 
	C709.788086,430.608398 711.789185,437.471466 716.613159,441.803009 
	C717.999939,443.048218 718.926331,445.167938 719.365906,447.049744 
	C723.380554,464.235901 725.910461,481.835663 723.069702,499.188995 
	C721.733887,507.349182 720.100708,515.355164 720.189392,523.631348 
	C720.210205,525.570374 720.145447,528.240723 721.296631,529.321960 
	C730.750244,538.201172 724.411255,546.933105 721.389160,555.698364 
	C720.961426,556.938782 720.332214,558.188721 719.509766,559.201599 
	C713.284973,566.867798 707.199585,574.662720 700.657532,582.051636 
	C693.545410,590.084351 688.880798,599.530640 683.672302,608.744202 
	C675.566284,623.083496 672.887451,638.402222 673.642456,654.582397 
	C673.750916,656.908508 674.098450,659.358154 673.555786,661.558411 
	C669.736145,677.046448 680.121033,684.970459 690.570862,691.958862 
	C703.401245,700.539001 718.597290,703.088806 733.510742,706.012939 
	C747.033569,708.664368 760.970215,710.211609 773.895325,714.656616 
	C791.053650,720.557312 805.643250,731.020020 814.277893,747.826660 
	C816.170471,751.510376 816.748108,755.869568 818.301880,761.185608 
	C807.610718,762.495178 797.747681,761.676453 787.957092,761.826172 
	C778.299438,761.973877 768.637695,761.855835 758.977783,761.855530 
	C748.985168,761.855225 738.992615,761.856323 728.000000,761.857178 
z"/>
<path fill="#FFFEFF" opacity="1.000000" stroke="none" 
	d="
M1122.747803,758.903442 
	C1125.358643,737.593933 1127.674316,717.150330 1130.142456,696.725098 
	C1131.970825,681.595398 1133.996948,666.489685 1135.973755,651.070312 
	C1138.893188,650.716064 1141.137695,650.215637 1143.384155,650.207520 
	C1160.031860,650.147278 1176.704224,649.622864 1193.321167,650.343933 
	C1211.329346,651.125305 1228.924561,654.094482 1244.688110,664.100159 
	C1261.609741,674.840637 1270.741333,690.419983 1273.795532,709.700867 
	C1277.500122,733.088562 1274.828003,756.162781 1267.482910,778.477539 
	C1255.498901,814.885498 1229.129028,835.146912 1192.164795,841.764709 
	C1167.136230,846.245667 1141.729980,843.679321 1116.478760,843.607178 
	C1115.913574,843.605591 1115.350098,843.006104 1113.740234,842.091370 
	C1114.960938,814.824524 1120.509888,787.465942 1122.747803,758.903442 
z"/>
<path fill="#FEFDFF" opacity="1.000000" stroke="none" 
	d="
M2669.427490,821.147522 
	C2658.005371,844.084778 2640.633057,856.415222 2615.163330,855.751892 
	C2591.284912,855.130066 2575.612061,840.866943 2571.745850,817.127319 
	C2568.413086,796.661743 2571.961182,777.414978 2581.214111,759.178650 
	C2595.204102,731.606995 2624.470215,724.220032 2650.203125,732.585083 
	C2669.445557,738.840210 2676.320801,755.064331 2677.858154,773.798096 
	C2679.185059,789.966064 2676.348145,805.587097 2669.427490,821.147522 
z"/>
<path fill="#FEFDFF" opacity="1.000000" stroke="none" 
	d="
M1865.583496,724.635864 
	C1878.601562,720.498535 1891.188843,718.965454 1904.252563,721.994568 
	C1925.746948,726.978455 1939.165039,747.019836 1934.979980,770.580017 
	C1912.797363,770.580017 1890.329834,770.580017 1866.943604,770.776489 
	C1854.223633,770.594238 1842.422119,770.215454 1829.414917,769.797974 
	C1834.713501,748.570740 1846.313232,734.017029 1865.583496,724.635864 
z"/>
<path fill="#FFFFFF" opacity="1.000000" stroke="none" 
	d="
M1321.969971,431.969238 
	C1322.209473,431.084259 1322.482910,430.230927 1322.756348,429.377625 
	C1322.823853,430.145416 1322.891357,430.913239 1322.517700,431.869812 
	C1322.076538,432.058563 1322.003784,432.000916 1321.969971,431.969238 
z"/>
<path fill="#FEFDFF" opacity="1.000000" stroke="none" 
	d="
M1793.574951,424.323425 
	C1790.690796,424.355286 1788.688232,424.423889 1786.695557,424.313507 
	C1772.882690,423.548248 1764.007446,416.114166 1762.120483,402.614014 
	C1760.094482,388.119751 1761.833496,374.049286 1769.399048,361.106964 
	C1775.713623,350.304718 1785.211060,344.081421 1797.429321,342.363007 
	C1817.012695,339.608704 1830.814209,350.824188 1831.526489,370.772186 
	C1832.047729,385.368195 1828.482788,399.231537 1819.136841,410.968414 
	C1812.859253,418.851929 1804.833862,423.824341 1793.574951,424.323425 
z"/>
<path fill="#FBF8FF" opacity="1.000000" stroke="none" 
	d="
M2287.842285,336.173950 
	C2308.920166,338.205902 2319.062012,349.912689 2316.121338,369.132751 
	C2293.894043,370.234253 2271.461914,369.534393 2249.072754,369.534058 
	C2248.008789,352.764313 2265.778076,337.463745 2287.842285,336.173950 
z"/>
</svg>